<svg xmlns="http://www.w3.org/2000/svg" xmlns:xlink="http://www.w3.org/1999/xlink" xmlns:lucid="lucid" width="1921.5" height="947.99"><g transform="translate(-199.49999999999997 -480.201557338361)" lucid:page-tab-id="0_0"><path d="M354.47 911.7H229.2c-5.03 0-9.2-4.13-9.2-9.14v-82.04c0-5.02 4.17-9.13 9.2-9.13h125.27c5.02 0 9.2 4.1 9.2 9.12v81.94c0 5.12-4.03 9.23-9.06 9.23h-.13zm-125.13-94.2c-1.73 0-3.16 1.3-3.16 3.02v81.94c0 1.7 1.43 3.1 3.16 3.1H354.6c1.73 0 3.03-1.4 3.03-3.1v-81.94c0-1.7-1.3-3-3.02-3zM353 951.58H230.7c-5.9-.03-10.64-4.77-10.64-10.64v-13.2c0-5.88 4.74-10.7 10.64-10.72H353c5.9 0 10.78 4.8 10.78 10.7v13.22c0 5.9-4.88 10.64-10.78 10.64zM230.7 923.1c-2.45.04-4.46 2.1-4.46 4.63v13.2c0 2.53 2 4.53 4.46 4.57H353c2.6 0 4.6-2.08 4.6-4.63v-13.14c0-2.55-2-4.63-4.6-4.63z" stroke="#fff" stroke-opacity="0" fill="#232f3e"/><path d="M349.24 900.26h-114.7c-1.7 0-3.02-1.4-3.02-3.02v-71.5c0-1.62 1.33-3 3.02-3h114.7c1.7 0 3.02 1.38 3.02 3v71.5c0 1.62-1.33 3.02-3.02 3.02zm-111.56-6.13H346.1v-65.28H237.68zM314.8 928.45h34.42c2.03 0 3.04 1.02 3.04 3.05v5.72c0 2.04-1 3.05-3.04 3.05H314.8c-2.03 0-3.04-1-3.04-3.05v-5.72c0-2.03 1-3.05 3.04-3.05z" stroke="#fff" stroke-opacity="0" fill="#232f3e"/><use xlink:href="#a" transform="matrix(1,0,0,1,189.99999999999997,960.5802209475963) translate(79.075 14.4)"/><path d="M1599.24 843.42h-25.68c-1.3 0-2.5-.76-3-1.95l-35.98-77.12h-14.5c-1.82 0-3.36-1.5-3.36-3.35v-22.25c0-1.83 1.54-3.35 3.35-3.35h32.02c1.37 0 2.48.76 3 1.95l35.9 77.12h8.24c1.8 0 3.35 1.5 3.35 3.45v22.15c0 1.83-1.56 3.35-3.36 3.35zm-23.62-6.8h20.18v-15.35h-6.95c-1.3 0-2.5-.75-3-1.94l-35.82-77.23h-26.53v15.45h13.22c1.38 0 2.58.75 3.1 1.94z" stroke="#fff" stroke-opacity="0" fill="#d86613"/><path d="M1529.56 843.42h-27.42c-1.8 0-3.34-1.54-3.34-3.4 0-.54.1-.94.35-1.4l28.64-60.03c.58-1.2 1.7-1.95 3.04-1.95 1.33 0 2.46.67 3.05 1.87l13.7 28.38c.44.93.44 1.93 0 2.87l-15 31.7c-.58 1.2-1.7 1.95-3.04 1.95zm-22-6.75h19.84l13.5-28.3-10.1-20.57z" stroke="#fff" stroke-opacity="0" fill="#d86613"/><path d="M1551.75 875.08c-43.78 0-79.32-35.54-79.32-79.32 0-43.8 35.54-79.33 79.32-79.33 43.8 0 79.32 35.54 79.32 79.33 0 43.78-35.53 79.32-79.32 79.32zm0-151.82c-40.13 0-72.5 32.36-72.5 72.5 0 40.13 32.37 72.5 72.5 72.5 40.14 0 72.5-32.37 72.5-72.5 0-40.14-32.36-72.5-72.5-72.5z" stroke="#fff" stroke-opacity="0" fill="#d86613"/><use xlink:href="#b" transform="matrix(1,0,0,1,1442.4314256329562,884.0767056834724) translate(40.07499999999999 14.4)"/><use xlink:href="#c" transform="matrix(1,0,0,1,1442.4314256329562,884.0767056834724) translate(110.02499999999999 14.4)"/><path d="M1024.2 951.58h172.33v172.33H1024.2V951.6z" stroke="#000" stroke-opacity="0" fill="url(#d)"/><path d="M1166.66 1081.48c.34.84.34 1.77-.24 2.62-.46.74-1.27 1.2-2.2 1.2h-16.2c-1.05 0-1.98-.55-2.44-1.58l-41-88c-.46-.83-.34-1.76.12-2.6.58-.75 1.4-1.2 2.32-1.2h16.1c1.04 0 2.08.55 2.43 1.57zm-60.8-13.82l6.83 13.73c.45.83.45 1.85-.13 2.6-.46.84-1.27 1.3-2.2 1.3h-56.63c-.92 0-1.85-.55-2.3-1.4-.48-.83-.48-1.86 0-2.7l31.02-51.2c.47-.83 1.4-1.4 2.44-1.3.92.1 1.85.66 2.2 1.5l7.3 14.38c.34.85.34 1.78-.12 2.62l-11.24 18.96h20.4c1.03 0 1.95.65 2.42 1.5zm-2.43-64.27l36.24 78.08c.47.84.35 1.77-.1 2.62-.6.74-1.4 1.2-2.33 1.2h-16.1c-1.04 0-1.97-.55-2.43-1.5l-29.75-62.2c-.35-.83-.35-1.77.12-2.6l9.6-15.9c.6-.83 1.4-1.4 2.44-1.3 1.05.1 1.98.66 2.33 1.6zm46.32 76.5h10.2l-38.46-82.58h-10.32zm-26.98 0h10.3l-32.42-69.7-6.26 10.38zm-64.16 0h47.37l-4.17-8.32h-23.5c-.93 0-1.86-.47-2.32-1.3-.46-.85-.46-1.88 0-2.72l12.85-21.85-4.28-8.68z" stroke="#000" stroke-opacity="0" fill="#fff"/><use xlink:href="#e" transform="matrix(1,0,0,1,994.1976961315961,1132.9109107491463) translate(87.07499999999999 14.4)"/><path d="M651.17 951.58h165.95v165.95H651.17V951.58z" stroke="#fff" stroke-opacity="0" fill="#d6242d"/><path d="M772.9 984.77H687.6c-4.78.22-8.45 4.3-8.25 9.05v54.9c-.2 4.76 3.47 8.85 8.25 9.07h47.07v-4.47H687.6c-2.34-.3-3.97-2.33-3.77-4.6v-37.38h39.83v33.15c0 1.24.92 2.2 2.14 2.2h17.73v-4.4h-14.47v-.65c0-7.74 4.8-14.24 12.23-16.43 3.57 1.6 7.24 1.6 10.9 0 4.18 1.24 7.44 3.73 9.8 7.52l3.75-2.2c-2.44-3.86-5.5-6.56-9.67-8.46 1.93-2.26 2.85-4.74 2.85-7.67 0-6.7-5.5-12.18-12.22-12.18-6.62 0-12.12 5.48-12.12 12.2.1 2.84 1.02 5.33 2.86 7.52-3.98 1.75-6.93 4.3-9.27 8.03v-29.72h37.6v30.96h4.37v-19.85h6.62v22.12h4.48v-39.65-.07c.2-4.82-3.57-8.83-8.35-8.98zm-26.2 21.83c4.28 0 7.75 3.43 7.85 7.67-.1 2.85-1.53 5.26-4.07 6.64-2.45 1.33-5.1 1.33-7.44 0-2.55-1.37-3.97-3.78-4.08-6.63.1-4.24 3.57-7.67 7.75-7.67zm23.44.3v-8.84c0-1.24-1.02-2.2-2.25-2.2H725.8c-1.22 0-2.14.96-2.14 2.2v8.84h-39.83V993.8c-.2-2.26 1.43-4.3 3.77-4.6h85.27c2.23.3 3.96 2.27 3.75 4.6v13.07z" stroke="#fff" stroke-opacity="0" fill="#fff"/><path d="M688.28 1022.27h24.3v4.43h-24.3v-4.43zM688.28 1033.34h15.44v4.42h-15.44v-4.42zM708.2 1033.34h6.58v4.42h-6.6v-4.42zM766.52 1084.45c-12.33.05-22.4-9.9-22.46-22.28-.04-12.35 9.9-22.4 22.28-22.46 1.03 0 1.88.06 2.9.2 12.25 1.5 21 12.7 19.47 24.95-.53 4.57-2.2 8.28-5.15 11.77-2.2 2.5-4.48 4.25-7.48 5.73-3.14 1.43-6.06 2.1-9.55 2.1zm0-40.3c-2.96 0-5.5.62-8.16 1.96-8.56 4.48-12.06 14.77-7.98 23.54 4.17 9 14.84 12.9 23.85 8.68 2.42-1.16 4.26-2.55 5.96-4.56 2.4-2.82 3.76-5.86 4.2-9.53 1.17-9.84-5.82-18.75-15.68-19.96-.77-.1-1.44-.13-2.25-.13z" stroke="#fff" stroke-opacity="0" fill="#fff"/><path d="M763 1071.5c-.6 0-1.1-.2-1.55-.64l-7.15-7.13 3.08-3.13 5.56 5.57 12.62-12.63 3.15 3.14-14.2 14.18c-.4.4-.9.63-1.5.65z" stroke="#fff" stroke-opacity="0" fill="#fff"/><use xlink:href="#f" transform="matrix(1,0,0,1,621.1694546198594,1126.530136839303) translate(46.57499999999999 14.4)"/><use xlink:href="#g" transform="matrix(1,0,0,1,621.1694546198594,1126.530136839303) translate(117.52499999999999 14.4)"/><path d="M1948.2 961.5H2100v151.8h-151.8V961.5z" stroke="#fff" stroke-opacity="0" stroke-width="2" fill="#3b48cc"/><path d="M2046.27 1018.64c0-5.84-11.5-8.57-22.27-8.57-10.75 0-22.27 2.73-22.27 8.57 0 .33.05.55.1.88v36.5c-.1 6.13 11.46 8.7 22.26 8.7 10.84 0 22.26-2.68 22.26-8.53v-37.56zm-22.22-4.53c11.78 0 18.2 3.23 18.2 4.54 0 1.32-6.38 4.54-18.2 4.54-11.88 0-18.2-3.17-18.2-4.53 0-1.32 6.37-4.54 18.2-4.54zm18.2 42.1c0 1.3-6.38 4.47-18.2 4.47-11.83 0-18.2-3.17-18.2-4.48v-6.4c4.23 2.35 11.4 3.44 18.2 3.44 6.78 0 13.88-1.1 18.2-3.4zm0-11.54c0 1.3-6.38 4.53-18.2 4.53-11.88 0-18.2-3.23-18.2-4.54h.03v-7.7c4.3 2.3 11.43 3.38 18.2 3.38 6.8 0 13.9-1.1 18.22-3.33zm0-12.9c0 1.3-6.38 4.6-18.2 4.6-11.88 0-18.2-3.3-18.2-4.6h.03v-7.87c4.33 2.3 11.38 3.32 18.2 3.32 6.84 0 14.03-1.1 18.22-3.44zM1980.4 1084h13.33v4.03h-18.2c-1.13 0-2.03-.9-2.03-2.03v-18.2h4.03v13.3l15.2-15.17 2.83 2.85zM2074.7 1067.8v18.2c0 1.13-.9 2.03-2.03 2.03h-18.2v-4.05h13.32l-14.96-14.98 2.86-2.85 14.96 14.94v-13.3zM2074.7 988.86v18.2h-4.04v-13.35l-14.96 14.97-2.86-2.86 14.93-14.93h-13.3v-4.04h18.2c1.13 0 2.03.9 2.03 2.03zM1995.56 1006.04l-2.83 2.83-15.2-15.17v13.34h-4.03v-18.22c0-1.13.9-2.03 2.03-2.03h18.2v4.03h-13.33zM1993.05 1055.55c-12.37-4.44-19.45-11.26-19.45-18.65 0-7.38 7.08-14.16 19.45-18.64l1.38 3.8c-10.5 3.8-16.8 9.33-16.8 14.84 0 5.52 6.3 11.04 16.8 14.84zM2054 1056l-1.28-3.87c11.23-3.77 17.94-9.46 17.94-15.23 0-5.76-6.7-11.45-17.94-15.27l1.3-3.8c13.14 4.4 20.68 11.4 20.68 19.07 0 7.68-7.54 14.62-20.68 19.1z" stroke="#fff" stroke-opacity="0" stroke-width="2" fill="#fff"/><use xlink:href="#f" transform="matrix(1,0,0,1,1918.1964671173228,1122.3115195882854) translate(51.574999999999996 14.4)"/><use xlink:href="#h" transform="matrix(1,0,0,1,1918.1964671173228,1122.3115195882854) translate(122.525 14.4)"/><path d="M733.25 500.7c-46.3 0-83.88 37.58-83.88 83.88 0 46.46 37.58 83.87 83.88 83.87 46.46 0 83.87-37.58 83.87-83.88 0-46.46-37.4-83.87-83.87-83.87zm22.14 156.68v-14.1c0-5.7-3.2-10.56-7.56-13.75h.84c8.05-.84 14.93-3.35 14.93-3.35s10.24-3.2 15.94-9.73c5.88-7.22 7.55-17.28 7.55-17.28s1.67-11.07 0-19.96c-1.7-8.2-8.4-14.42-8.4-14.42s2.2-5.87 1.85-11.57c0-5.7-2.68-11.4-2.68-11.4s-4.87-.5-10.24 1.68c-6.2 2.68-13.25 7.55-13.25 7.55s-4.86-1.68-10.57-2.18c-5.2-1-11.4-1-11.4-1s-6.2 0-11.57 1c-5.7.83-10.57 2.18-10.57 2.18s-7.04-4.87-13.25-7.55c-5.2-2.18-10.05-1.68-10.05-1.68s-2.7 5.7-2.7 11.4c0 5.88 1.7 11.58 1.7 11.58s-6.05 5.7-8.23 14.43c-2.35 8.9 0 19.97 0 19.97s1.18 10.06 7.38 17.28c5.87 6.54 15.94 9.73 15.94 9.73s7.04 2.5 14.93 3.35h1.34c-3 3.2-6.2 8.05-6.2 13.76v14.08c-31.2-9.23-53.84-38.42-53.84-72.8 0-41.94 34.05-75.83 76-75.83 41.92 0 76.48 33.9 76.48 75.83 0 34.38-22.98 63.57-54.35 72.8z" stroke="#000" stroke-opacity="0" fill="#0078d7"/><use xlink:href="#i" transform="matrix(1,0,0,1,619.372163112007,677.4487647379199) translate(86.05 14.4)"/><path d="M320.22 1122.92c9.77 0 17.8 7.9 17.8 17.62v135.7c0 7.9-6.55 14.43-14.67 14.43h-62.92c-8.12 0-14.67-6.54-14.67-14.43v-135.7c0-9.73 8.03-17.62 17.9-17.62zm-66.8 33.72v106.52h76.94v-106.52zm10.24-26c-5.63 0-10.24 4.36-10.24 9.9v8.38h76.94v-8.38c0-5.54-4.6-9.9-10.24-9.9zm59.7 152.3c3.87 0 7-3 7-6.7v-5.37h-76.94v5.37c0 3.7 3.14 6.7 7 6.7zm-35.25-139.38V1136h20.67v7.56zm-13.1 3.18c-3.87 0-6.9-3.02-6.9-6.88 0-3.85 3.03-6.87 6.9-6.87 3.88 0 6.93 3 6.93 6.86 0 3.86-3.05 6.88-6.92 6.88zm0-8.05c-.64 0-1.2.5-1.2 1.16 0 .68.56 1.18 1.2 1.18.65 0 1.2-.5 1.2-1.18 0-.67-.55-1.17-1.2-1.17z" stroke="#000" stroke-opacity="0" fill="#232f3d"/><use xlink:href="#a" transform="matrix(1,0,0,1,215.76117827921794,1299.669218762419) translate(53.575 14.4)"/><path d="M1599.24 1086.98h-25.68c-1.3 0-2.5-.75-3-1.94l-35.98-77.12h-14.5c-1.82 0-3.36-1.5-3.36-3.35v-22.25c0-1.84 1.54-3.35 3.35-3.35h32.02c1.37 0 2.48.76 3 1.95l35.9 77.12h8.24c1.8 0 3.35 1.5 3.35 3.45v22.14c0 1.83-1.56 3.34-3.36 3.34zm-23.62-6.8h20.18v-15.34h-6.95c-1.3 0-2.5-.75-3-1.94l-35.82-77.23h-26.53v15.45h13.22c1.38 0 2.58.75 3.1 1.94z" stroke="#fff" stroke-opacity="0" fill="#d86613"/><path d="M1529.56 1086.98h-27.42c-1.8 0-3.34-1.53-3.34-3.4 0-.53.1-.93.35-1.4l28.64-60.02c.58-1.2 1.7-1.94 3.04-1.94 1.33 0 2.46.67 3.05 1.87l13.7 28.36c.44.94.44 1.94 0 2.88l-15 31.7c-.58 1.2-1.7 1.94-3.04 1.94zm-22-6.74h19.84l13.5-28.3-10.1-20.57z" stroke="#fff" stroke-opacity="0" fill="#d86613"/><path d="M1551.75 1118.64c-43.78 0-79.32-35.53-79.32-79.32 0-43.78 35.54-79.32 79.32-79.32 43.8 0 79.32 35.54 79.32 79.32 0 43.8-35.53 79.33-79.32 79.33zm0-151.82c-40.13 0-72.5 32.37-72.5 72.5 0 40.14 32.37 72.5 72.5 72.5 40.14 0 72.5-32.36 72.5-72.5 0-40.13-32.36-72.5-72.5-72.5z" stroke="#fff" stroke-opacity="0" fill="#d86613"/><use xlink:href="#b" transform="matrix(1,0,0,1,1442.4314256329562,1127.6451203014722) translate(40.07499999999999 14.4)"/><use xlink:href="#c" transform="matrix(1,0,0,1,1442.4314256329562,1127.6451203014722) translate(110.02499999999999 14.4)"/><path d="M1599.24 1350.53h-25.68c-1.3 0-2.5-.76-3-1.95l-35.98-77.12h-14.5c-1.82 0-3.36-1.5-3.36-3.35v-22.23c0-1.84 1.54-3.35 3.35-3.35h32.02c1.37 0 2.48.75 3 1.94l35.9 77.12h8.24c1.8 0 3.35 1.5 3.35 3.46v22.14c0 1.84-1.56 3.35-3.36 3.35zm-23.62-6.8h20.18v-15.35h-6.95c-1.3 0-2.5-.75-3-1.94l-35.82-77.23h-26.53v15.46h13.22c1.38 0 2.58.75 3.1 1.94z" stroke="#fff" stroke-opacity="0" fill="#d86613"/><path d="M1529.56 1350.53h-27.42c-1.8 0-3.34-1.54-3.34-3.4 0-.54.1-.94.35-1.4l28.64-60.03c.58-1.2 1.7-1.94 3.04-1.94 1.33 0 2.46.67 3.05 1.87l13.7 28.38c.44.94.44 1.94 0 2.88l-15 31.7c-.58 1.2-1.7 1.95-3.04 1.95zm-22-6.75h19.84l13.5-28.3-10.1-20.57z" stroke="#fff" stroke-opacity="0" fill="#d86613"/><path d="M1551.75 1382.2c-43.78 0-79.32-35.55-79.32-79.33 0-43.8 35.54-79.32 79.32-79.32 43.8 0 79.32 35.53 79.32 79.32 0 43.78-35.53 79.32-79.32 79.32zm0-151.83c-40.13 0-72.5 32.36-72.5 72.5 0 40.13 32.37 72.5 72.5 72.5 40.14 0 72.5-32.37 72.5-72.5 0-40.14-32.36-72.5-72.5-72.5z" stroke="#fff" stroke-opacity="0" fill="#d86613"/><use xlink:href="#b" transform="matrix(1,0,0,1,1442.4314256329562,1391.1881372899027) translate(40.07499999999999 14.4)"/><use xlink:href="#c" transform="matrix(1,0,0,1,1442.4314256329562,1391.1881372899027) translate(110.02499999999999 14.4)"/><path d="M338.52 1221.17h109.12a12 12 0 0 0 12-12v-162.62a12 12 0 0 1 12-12H634.8" stroke="#333" fill="none"/><path d="M338.54 1221.65h-.52v-.95h.52z" stroke="#333" stroke-width=".05" fill="#333"/><path d="M649.55 1034.56l-14.26 4.63v-9.28z" stroke="#333" fill="#333"/><path d="M364.16 881.5h83.48a12 12 0 0 1 12 12v129.05a12 12 0 0 0 12 12H634.8" stroke="#333" fill="none"/><path d="M364.17 881.96h-.5V881h.5z" stroke="#333" stroke-width=".05" fill="#333"/><path d="M649.55 1034.56l-14.26 4.63v-9.28z" stroke="#333" fill="#333"/><path d="M459.64 982.75a8 8 0 0 1 8-8h175.53a8 8 0 0 1 8 8v31.88a8 8 0 0 1-8 8H467.64a8 8 0 0 1-8-8z" stroke="#000" stroke-opacity="0" fill="#fff" fill-opacity="0"/><use xlink:href="#j" transform="matrix(1,0,0,1,464.6388677136554,979.7512322324152) translate(34.05 21.525)"/><path d="M732.24 668.94V935.2" stroke="#333" fill="none"/><path d="M732.7 668.44v.5h-.94v-.5z" stroke="#333" stroke-width=".05" fill="#333"/><path d="M732.24 949.96l-4.64-14.26h9.27z" stroke="#333" fill="#333"/><path d="M675.3 797.96a8 8 0 0 1 8-8H883a8 8 0 0 1 8 8v47.74a8 8 0 0 1-8 8H683.3a8 8 0 0 1-8-8z" stroke="#000" stroke-opacity="0" fill="#fff" fill-opacity="0"/><use xlink:href="#k" transform="matrix(1,0,0,1,680.3138486559454,794.9582431348093) translate(66.07499999999999 21.15)"/><use xlink:href="#l" transform="matrix(1,0,0,1,680.3138486559454,794.9582431348093) translate(103 42.75)"/><path d="M817.62 1034.56h190.19" stroke="#333" fill="none"/><path d="M817.63 1035.03h-.5v-.95h.5z" stroke="#333" stroke-width=".05" fill="#333"/><path d="M1022.58 1034.56l-14.27 4.63v-9.28z" stroke="#333" fill="#333"/><path d="M747.2 982.75a8 8 0 0 1 8-8h271.57a8 8 0 0 1 8 8v55.9a8 8 0 0 1-8 8H755.2a8 8 0 0 1-8-8z" stroke="#000" stroke-opacity="0" fill="#fff" fill-opacity="0"/><use xlink:href="#m" transform="matrix(1,0,0,1,752.205508970042,979.751232232415) translate(101.025 33.775)"/><path d="M1197.03 1037.75h100.24a12 12 0 0 0 12-12v-218a12 12 0 0 1 12-12h134.78" stroke="#333" fill="none"/><path d="M1197.04 1038.22h-.5v-.95h.5z" stroke="#333" stroke-width=".05" fill="#333"/><path d="M1470.8 795.76l-14.25 4.63v-9.28z" stroke="#333" fill="#333"/><path d="M1197.03 1037.75h249.9a.45.45 0 0 1 .43.44.45.45 0 0 0 .46.44h8.25" stroke="#333" fill="none"/><path d="M1197.04 1038.22h-.5v-.95h.5z" stroke="#333" stroke-width=".05" fill="#333"/><path d="M1470.84 1038.64l-14.27 4.64V1034z" stroke="#333" fill="#333"/><path d="M1197.03 1037.75h100.24a12 12 0 0 1 12 12v241.12a12 12 0 0 0 12 12h134.78" stroke="#333" fill="none"/><path d="M1197.04 1038.22h-.5v-.95h.5z" stroke="#333" stroke-width=".05" fill="#333"/><path d="M1470.8 1302.87l-14.25 4.63v-9.27z" stroke="#333" fill="#333"/><path d="M1136.62 979.17a8 8 0 0 1 8-8h271.57a8 8 0 0 1 7.98 8v55.9a8 8 0 0 1-8 8h-271.56a8 8 0 0 1-8-8z" stroke="#000" stroke-opacity="0" fill="#fff" fill-opacity="0"/><use xlink:href="#n" transform="matrix(1,0,0,1,1141.6186690047323,976.1721209988087) translate(112.5 33.775)"/><path d="M1705.76 979.17a8 8 0 0 1 8-8h271.57a8 8 0 0 1 8 8v55.9a8 8 0 0 1-8 8h-271.57a8 8 0 0 1-8-8z" stroke="#000" stroke-opacity="0" fill="#fff" fill-opacity="0"/><use xlink:href="#o" transform="matrix(1,0,0,1,1710.760979824664,976.1721209988087) translate(99.6 33.775)"/><path d="M1631.57 795.76h114.5a12 12 0 0 1 12 12v217.65a12 12 0 0 0 12 12h161.74" stroke="#333" fill="none"/><path d="M1631.6 796.23h-.54v-.95h.53z" stroke="#333" stroke-width=".05" fill="#333"/><path d="M1946.58 1037.4l-14.27 4.64v-9.27z" stroke="#333" fill="#333"/><path d="M1631.57 1039.32h157.9a.17.17 0 0 0 .16-.16.17.17 0 0 1 .17-.17h142" stroke="#333" fill="none"/><path d="M1631.6 1039.8h-.54v-.95h.53z" stroke="#333" stroke-width=".05" fill="#333"/><path d="M1946.58 1039l-14.27 4.62v-9.27z" stroke="#333" fill="#333"/><path d="M1631.57 1302.87h114.5a12 12 0 0 0 12-12v-246.55c-2.75 0-5-2.23-5-5 0-2.76 2.25-5 5-5 2.08 0 3.84 1.18 4.63 3.1h169.1" stroke="#333" fill="none"/><path d="M1631.6 1303.34h-.54v-.95h.53z" stroke="#333" stroke-width=".05" fill="#333"/><path d="M1946.58 1037.4l-14.27 4.64v-9.27z" stroke="#333" fill="#333"/><defs><path fill="#333" d="M212-179c-10-28-35-45-73-45-59 0-87 40-87 99 0 60 29 101 89 101 43 0 62-24 78-52l27 14C228-24 195 4 139 4 59 4 22-46 18-125c-6-104 99-153 187-111 19 9 31 26 39 46" id="p"/><path fill="#333" d="M24 0v-261h32V0H24" id="q"/><path fill="#333" d="M24-231v-30h32v30H24zM24 0v-190h32V0H24" id="r"/><path fill="#333" d="M100-194c63 0 86 42 84 106H49c0 40 14 67 53 68 26 1 43-12 49-29l28 8c-11 28-37 45-77 45C44 4 14-33 15-96c1-61 26-98 85-98zm52 81c6-60-76-77-97-28-3 7-6 17-6 28h103" id="s"/><path fill="#333" d="M117-194c89-4 53 116 60 194h-32v-121c0-31-8-49-39-48C34-167 62-67 57 0H25l-1-190h30c1 10-1 24 2 32 11-22 29-35 61-36" id="t"/><path fill="#333" d="M59-47c-2 24 18 29 38 22v24C64 9 27 4 27-40v-127H5v-23h24l9-43h21v43h35v23H59v120" id="u"/><g id="a"><use transform="matrix(0.05,0,0,0.05,0,0)" xlink:href="#p"/><use transform="matrix(0.05,0,0,0.05,12.950000000000001,0)" xlink:href="#q"/><use transform="matrix(0.05,0,0,0.05,16.900000000000002,0)" xlink:href="#r"/><use transform="matrix(0.05,0,0,0.05,20.85,0)" xlink:href="#s"/><use transform="matrix(0.05,0,0,0.05,30.85,0)" xlink:href="#t"/><use transform="matrix(0.05,0,0,0.05,40.85,0)" xlink:href="#u"/></g><path fill="#333" d="M30 0v-248h33v221h125V0H30" id="v"/><path fill="#333" d="M141-36C126-15 110 5 73 4 37 3 15-17 15-53c-1-64 63-63 125-63 3-35-9-54-41-54-24 1-41 7-42 31l-33-3c5-37 33-52 76-52 45 0 72 20 72 64v82c-1 20 7 32 28 27v20c-31 9-61-2-59-35zM48-53c0 20 12 33 32 33 41-3 63-29 60-74-43 2-92-5-92 41" id="w"/><path fill="#333" d="M210-169c-67 3-38 105-44 169h-31v-121c0-29-5-50-35-48C34-165 62-65 56 0H25l-1-190h30c1 10-1 24 2 32 10-44 99-50 107 0 11-21 27-35 58-36 85-2 47 119 55 194h-31v-121c0-29-5-49-35-48" id="x"/><path fill="#333" d="M115-194c53 0 69 39 70 98 0 66-23 100-70 100C84 3 66-7 56-30L54 0H23l1-261h32v101c10-23 28-34 59-34zm-8 174c40 0 45-34 45-75 0-40-5-75-45-74-42 0-51 32-51 76 0 43 10 73 51 73" id="y"/><path fill="#333" d="M85-194c31 0 48 13 60 33l-1-100h32l1 261h-30c-2-10 0-23-3-31C134-8 116 4 85 4 32 4 16-35 15-94c0-66 23-100 70-100zm9 24c-40 0-46 34-46 75 0 40 6 74 45 74 42 0 51-32 51-76 0-42-9-74-50-73" id="z"/><g id="b"><use transform="matrix(0.05,0,0,0.05,0,0)" xlink:href="#v"/><use transform="matrix(0.05,0,0,0.05,10,0)" xlink:href="#w"/><use transform="matrix(0.05,0,0,0.05,20,0)" xlink:href="#x"/><use transform="matrix(0.05,0,0,0.05,34.95,0)" xlink:href="#y"/><use transform="matrix(0.05,0,0,0.05,44.95,0)" xlink:href="#z"/><use transform="matrix(0.05,0,0,0.05,54.95,0)" xlink:href="#w"/></g><path fill="#333" d="M63-220v92h138v28H63V0H30v-248h175v28H63" id="A"/><path fill="#333" d="M84 4C-5 8 30-112 23-190h32v120c0 31 7 50 39 49 72-2 45-101 50-169h31l1 190h-30c-1-10 1-25-2-33-11 22-28 36-60 37" id="B"/><path fill="#333" d="M96-169c-40 0-48 33-48 73s9 75 48 75c24 0 41-14 43-38l32 2c-6 37-31 61-74 61-59 0-76-41-82-99-10-93 101-131 147-64 4 7 5 14 7 22l-32 3c-4-21-16-35-41-35" id="C"/><path fill="#333" d="M100-194c62-1 85 37 85 99 1 63-27 99-86 99S16-35 15-95c0-66 28-99 85-99zM99-20c44 1 53-31 53-75 0-43-8-75-51-75s-53 32-53 75 10 74 51 75" id="D"/><g id="c"><use transform="matrix(0.05,0,0,0.05,0,0)" xlink:href="#A"/><use transform="matrix(0.05,0,0,0.05,10.950000000000001,0)" xlink:href="#B"/><use transform="matrix(0.05,0,0,0.05,20.950000000000003,0)" xlink:href="#t"/><use transform="matrix(0.05,0,0,0.05,30.950000000000003,0)" xlink:href="#C"/><use transform="matrix(0.05,0,0,0.05,39.95,0)" xlink:href="#u"/><use transform="matrix(0.05,0,0,0.05,44.95,0)" xlink:href="#r"/><use transform="matrix(0.05,0,0,0.05,48.900000000000006,0)" xlink:href="#D"/><use transform="matrix(0.05,0,0,0.05,58.900000000000006,0)" xlink:href="#t"/></g><linearGradient gradientUnits="userSpaceOnUse" id="d" x1="1024.2" y1="1123.91" x2="1196.53" y2="951.58"><stop offset="0%" stop-color="#bd0816"/><stop offset="100%" stop-color="#ff5252"/></linearGradient><path fill="#333" d="M205 0l-28-72H64L36 0H1l101-248h38L239 0h-34zm-38-99l-47-123c-12 45-31 82-46 123h93" id="E"/><path fill="#333" d="M115-194c55 1 70 41 70 98S169 2 115 4C84 4 66-9 55-30l1 105H24l-1-265h31l2 30c10-21 28-34 59-34zm-8 174c40 0 45-34 45-75s-6-73-45-74c-42 0-51 32-51 76 0 43 10 73 51 73" id="F"/><path fill="#333" d="M101-234c-31-9-42 10-38 44h38v23H63V0H32v-167H5v-23h27c-7-52 17-82 69-68v24" id="G"/><path fill="#333" d="M179-190L93 31C79 59 56 82 12 73V49c39 6 53-20 64-50L1-190h34L92-34l54-156h33" id="H"/><g id="e"><use transform="matrix(0.05,0,0,0.05,0,0)" xlink:href="#E"/><use transform="matrix(0.05,0,0,0.05,12,0)" xlink:href="#x"/><use transform="matrix(0.05,0,0,0.05,26.950000000000003,0)" xlink:href="#F"/><use transform="matrix(0.05,0,0,0.05,36.95,0)" xlink:href="#q"/><use transform="matrix(0.05,0,0,0.05,40.900000000000006,0)" xlink:href="#r"/><use transform="matrix(0.05,0,0,0.05,44.85000000000001,0)" xlink:href="#G"/><use transform="matrix(0.05,0,0,0.05,49.85000000000001,0)" xlink:href="#H"/></g><path fill="#333" d="M9 0v-24l116-142H16v-24h144v24L44-24h123V0H9" id="I"/><g id="f"><use transform="matrix(0.05,0,0,0.05,0,0)" xlink:href="#E"/><use transform="matrix(0.05,0,0,0.05,12,0)" xlink:href="#x"/><use transform="matrix(0.05,0,0,0.05,26.950000000000003,0)" xlink:href="#w"/><use transform="matrix(0.05,0,0,0.05,36.95,0)" xlink:href="#I"/><use transform="matrix(0.05,0,0,0.05,45.95,0)" xlink:href="#D"/><use transform="matrix(0.05,0,0,0.05,55.95,0)" xlink:href="#t"/></g><path fill="#333" d="M177-190C167-65 218 103 67 71c-23-6-38-20-44-43l32-5c15 47 100 32 89-28v-30C133-14 115 1 83 1 29 1 15-40 15-95c0-56 16-97 71-98 29-1 48 16 59 35 1-10 0-23 2-32h30zM94-22c36 0 50-32 50-73 0-42-14-75-50-75-39 0-46 34-46 75s6 73 46 73" id="J"/><g id="g"><use transform="matrix(0.05,0,0,0.05,0,0)" xlink:href="#p"/><use transform="matrix(0.05,0,0,0.05,12.950000000000001,0)" xlink:href="#D"/><use transform="matrix(0.05,0,0,0.05,22.950000000000003,0)" xlink:href="#J"/><use transform="matrix(0.05,0,0,0.05,32.95,0)" xlink:href="#t"/><use transform="matrix(0.05,0,0,0.05,42.95,0)" xlink:href="#r"/><use transform="matrix(0.05,0,0,0.05,46.900000000000006,0)" xlink:href="#u"/><use transform="matrix(0.05,0,0,0.05,51.900000000000006,0)" xlink:href="#D"/></g><path fill="#333" d="M233-177c-1 41-23 64-60 70L243 0h-38l-65-103H63V0H30v-248c88 3 205-21 203 71zM63-129c60-2 137 13 137-47 0-61-80-42-137-45v92" id="K"/><path fill="#333" d="M30-248c118-7 216 8 213 122C240-48 200 0 122 0H30v-248zM63-27c89 8 146-16 146-99s-60-101-146-95v194" id="L"/><path fill="#333" d="M185-189c-5-48-123-54-124 2 14 75 158 14 163 119 3 78-121 87-175 55-17-10-28-26-33-46l33-7c5 56 141 63 141-1 0-78-155-14-162-118-5-82 145-84 179-34 5 7 8 16 11 25" id="M"/><g id="h"><use transform="matrix(0.05,0,0,0.05,0,0)" xlink:href="#K"/><use transform="matrix(0.05,0,0,0.05,12.950000000000001,0)" xlink:href="#L"/><use transform="matrix(0.05,0,0,0.05,25.900000000000002,0)" xlink:href="#M"/></g><path d="M143 4C61 4 22-44 18-125c-5-107 100-154 193-111 17 8 29 25 37 43l-32 9c-13-25-37-40-76-40-61 0-88 39-88 99 0 61 29 100 91 101 35 0 62-11 79-27v-45h-74v-28h105v86C228-13 192 4 143 4" id="N"/><path d="M24-231v-30h32v30H24zM24 0v-190h32V0H24" id="O"/><path d="M59-47c-2 24 18 29 38 22v24C64 9 27 4 27-40v-127H5v-23h24l9-43h21v43h35v23H59v120" id="P"/><path d="M197 0v-115H63V0H30v-248h33v105h134v-105h34V0h-34" id="Q"/><path d="M84 4C-5 8 30-112 23-190h32v120c0 31 7 50 39 49 72-2 45-101 50-169h31l1 190h-30c-1-10 1-25-2-33-11 22-28 36-60 37" id="R"/><path d="M115-194c53 0 69 39 70 98 0 66-23 100-70 100C84 3 66-7 56-30L54 0H23l1-261h32v101c10-23 28-34 59-34zm-8 174c40 0 45-34 45-75 0-40-5-75-45-74-42 0-51 32-51 76 0 43 10 73 51 73" id="S"/><g id="i"><use transform="matrix(0.05,0,0,0.05,0,0)" xlink:href="#N"/><use transform="matrix(0.05,0,0,0.05,14,0)" xlink:href="#O"/><use transform="matrix(0.05,0,0,0.05,17.95,0)" xlink:href="#P"/><use transform="matrix(0.05,0,0,0.05,22.95,0)" xlink:href="#Q"/><use transform="matrix(0.05,0,0,0.05,35.9,0)" xlink:href="#R"/><use transform="matrix(0.05,0,0,0.05,45.9,0)" xlink:href="#S"/></g><path fill="#333" d="M106-169C34-169 62-67 57 0H25v-261h32l-1 103c12-21 28-36 61-36 89 0 53 116 60 194h-32v-121c2-32-8-49-39-48" id="T"/><g id="j"><use transform="matrix(0.05,0,0,0.05,0,0)" xlink:href="#E"/><use transform="matrix(0.05,0,0,0.05,12,0)" xlink:href="#B"/><use transform="matrix(0.05,0,0,0.05,22,0)" xlink:href="#u"/><use transform="matrix(0.05,0,0,0.05,27,0)" xlink:href="#T"/><use transform="matrix(0.05,0,0,0.05,37,0)" xlink:href="#s"/><use transform="matrix(0.05,0,0,0.05,47,0)" xlink:href="#t"/><use transform="matrix(0.05,0,0,0.05,57,0)" xlink:href="#u"/><use transform="matrix(0.05,0,0,0.05,62,0)" xlink:href="#r"/><use transform="matrix(0.05,0,0,0.05,65.95,0)" xlink:href="#C"/><use transform="matrix(0.05,0,0,0.05,74.95,0)" xlink:href="#w"/><use transform="matrix(0.05,0,0,0.05,84.95,0)" xlink:href="#u"/><use transform="matrix(0.05,0,0,0.05,89.95,0)" xlink:href="#r"/><use transform="matrix(0.05,0,0,0.05,93.9,0)" xlink:href="#D"/><use transform="matrix(0.05,0,0,0.05,103.9,0)" xlink:href="#t"/></g><path fill="#333" d="M30-248c87 1 191-15 191 75 0 78-77 80-158 76V0H30v-248zm33 125c57 0 124 11 124-50 0-59-68-47-124-48v98" id="U"/><path fill="#333" d="M114-163C36-179 61-72 57 0H25l-1-190h30c1 12-1 29 2 39 6-27 23-49 58-41v29" id="V"/><path fill="#333" d="M108 0H70L1-190h34L89-25l56-165h34" id="W"/><path fill="#333" d="M135-143c-3-34-86-38-87 0 15 53 115 12 119 90S17 21 10-45l28-5c4 36 97 45 98 0-10-56-113-15-118-90-4-57 82-63 122-42 12 7 21 19 24 35" id="X"/><g id="k"><use transform="matrix(0.05,0,0,0.05,0,0)" xlink:href="#U"/><use transform="matrix(0.05,0,0,0.05,12,0)" xlink:href="#V"/><use transform="matrix(0.05,0,0,0.05,17.95,0)" xlink:href="#D"/><use transform="matrix(0.05,0,0,0.05,27.950000000000003,0)" xlink:href="#W"/><use transform="matrix(0.05,0,0,0.05,36.95,0)" xlink:href="#r"/><use transform="matrix(0.05,0,0,0.05,40.900000000000006,0)" xlink:href="#X"/><use transform="matrix(0.05,0,0,0.05,49.900000000000006,0)" xlink:href="#r"/><use transform="matrix(0.05,0,0,0.05,53.85,0)" xlink:href="#D"/><use transform="matrix(0.05,0,0,0.05,63.85,0)" xlink:href="#t"/></g><path fill="#333" d="M145-31C134-9 116 4 85 4 32 4 16-35 15-94c0-59 17-99 70-100 32-1 48 14 60 33 0-11-1-24 2-32h30l-1 268h-32zM93-21c41 0 51-33 51-76s-8-73-50-73c-40 0-46 35-46 75s5 74 45 74" id="Y"/><g id="m"><use transform="matrix(0.05,0,0,0.05,0,0)" xlink:href="#K"/><use transform="matrix(0.05,0,0,0.05,12.950000000000001,0)" xlink:href="#s"/><use transform="matrix(0.05,0,0,0.05,22.950000000000003,0)" xlink:href="#Y"/><use transform="matrix(0.05,0,0,0.05,32.95,0)" xlink:href="#B"/><use transform="matrix(0.05,0,0,0.05,42.95,0)" xlink:href="#s"/><use transform="matrix(0.05,0,0,0.05,52.95,0)" xlink:href="#X"/><use transform="matrix(0.05,0,0,0.05,61.95,0)" xlink:href="#u"/><use transform="matrix(0.05,0,0,0.05,66.95,0)" xlink:href="#X"/></g><path fill="#333" d="M33 0v-248h34V0H33" id="Z"/><path fill="#333" d="M143 0L79-87 56-68V0H24v-261h32v163l83-92h37l-77 82L181 0h-38" id="aa"/><g id="n"><use transform="matrix(0.05,0,0,0.05,0,0)" xlink:href="#Z"/><use transform="matrix(0.05,0,0,0.05,5,0)" xlink:href="#t"/><use transform="matrix(0.05,0,0,0.05,15,0)" xlink:href="#W"/><use transform="matrix(0.05,0,0,0.05,24,0)" xlink:href="#D"/><use transform="matrix(0.05,0,0,0.05,34,0)" xlink:href="#aa"/><use transform="matrix(0.05,0,0,0.05,43,0)" xlink:href="#s"/></g><path fill="#333" d="M0 4l72-265h28L28 4H0" id="ab"/><path fill="#333" d="M206 0h-36l-40-164L89 0H53L-1-190h32L70-26l43-164h34l41 164 42-164h31" id="ac"/><g id="o"><use transform="matrix(0.05,0,0,0.05,0,0)" xlink:href="#V"/><use transform="matrix(0.05,0,0,0.05,5.95,0)" xlink:href="#s"/><use transform="matrix(0.05,0,0,0.05,15.949999999999998,0)" xlink:href="#w"/><use transform="matrix(0.05,0,0,0.05,25.950000000000003,0)" xlink:href="#z"/><use transform="matrix(0.05,0,0,0.05,35.95,0)" xlink:href="#ab"/><use transform="matrix(0.05,0,0,0.05,40.95,0)" xlink:href="#ac"/><use transform="matrix(0.05,0,0,0.05,53.900000000000006,0)" xlink:href="#V"/><use transform="matrix(0.05,0,0,0.05,59.85,0)" xlink:href="#r"/><use transform="matrix(0.05,0,0,0.05,63.80000000000001,0)" xlink:href="#u"/><use transform="matrix(0.05,0,0,0.05,68.80000000000001,0)" xlink:href="#s"/></g></defs></g></svg>